<svg xmlns="http://www.w3.org/2000/svg" width="174" height="42" fill="none" viewBox="0 0 174 42"><path fill="#09090A" d="M63.172 13.784v2.855h-4.087v12.283H56.1V16.639h-4.065v-2.855h11.137ZM65.594 19.971c.26-.69.688-1.21 1.287-1.556a3.918 3.918 0 0 1 2-.519v3.113c-.851-.1-1.611.072-2.28.519-.671.446-1.004 1.19-1.004 2.228v5.168h-2.788V18.11h2.788v1.858l-.003.003ZM77.097 18.11h2.788v10.812h-2.788v-1.21c-.677 1.01-1.751 1.515-3.221 1.515-1.182 0-2.159-.397-2.93-1.19-.772-.794-1.157-1.89-1.157-3.288v-6.64h2.788v6.293c0 .721.194 1.273.583 1.653.388.383.907.575 1.556.575.722 0 1.299-.222 1.731-.672.433-.446.65-1.118.65-2.011V18.11ZM87.046 29.227c-1.629 0-2.988-.547-4.076-1.643-1.087-1.096-1.634-2.45-1.634-4.064 0-1.615.544-2.969 1.634-4.065 1.088-1.096 2.447-1.642 4.076-1.642 1.051 0 2.011.252 2.877.757a5.022 5.022 0 0 1 1.967 2.034l-2.4 1.407a2.45 2.45 0 0 0-.985-1.06 2.847 2.847 0 0 0-1.481-.389c-.835 0-1.53.278-2.076.832-.549.555-.82 1.266-.82 2.131 0 .866.274 1.554.82 2.109.547.555 1.24.832 2.076.832.563 0 1.062-.125 1.503-.377.439-.253.769-.602.985-1.049l2.422 1.385a5.429 5.429 0 0 1-2.011 2.044 5.556 5.556 0 0 1-2.877.769v-.011ZM102.829 28.922h-3.243l-3.937-4.914v4.914h-2.788V13.784h2.788v9.1l3.72-4.774h3.33l-4.347 5.34 4.475 5.472h.002Z"/><path fill="#09090A" d="M105.534 21.18c0 .29.192.523.575.703.383.18.846.338 1.395.474.547.136 1.096.311 1.643.52a3.191 3.191 0 0 1 1.395 1.048c.383.49.575 1.101.575 1.84 0 1.109-.414 1.963-1.243 2.563-.83.599-1.865.896-3.102.896-2.22 0-3.734-.857-4.542-2.575l2.422-1.362c.317.938 1.024 1.407 2.12 1.407.993 0 1.493-.311 1.493-.93 0-.288-.192-.521-.575-.702a8.175 8.175 0 0 0-1.395-.485 14.379 14.379 0 0 1-1.643-.541 3.37 3.37 0 0 1-1.395-1.027c-.383-.469-.572-1.057-.572-1.762 0-1.065.391-1.906 1.179-2.519.785-.613 1.762-.918 2.93-.918.88 0 1.679.197 2.4.594.721.396 1.29.962 1.709 1.698l-2.378 1.298c-.346-.735-.924-1.101-1.731-1.101-.361 0-.66.08-.896.238a.74.74 0 0 0-.358.65l-.006-.006ZM118.616 13.784c2.075 0 3.809.727 5.202 2.184 1.39 1.456 2.086 3.251 2.086 5.385 0 2.133-.696 3.928-2.086 5.385-1.393 1.457-3.124 2.184-5.202 2.184h-6.012V13.784h6.012Zm0 12.285c1.312 0 2.378-.435 3.202-1.31.821-.87 1.231-2.008 1.231-3.406 0-1.398-.41-2.533-1.231-3.407-.822-.871-1.89-1.31-3.202-1.31h-3.027v9.428h3.027v.005ZM129.711 24.663c.374 1.354 1.39 2.033 3.049 2.033 1.065 0 1.873-.36 2.422-1.082l2.25 1.299c-1.068 1.542-2.638 2.314-4.714 2.314-1.786 0-3.221-.541-4.303-1.623-1.082-1.082-1.623-2.445-1.623-4.087s.533-2.988 1.601-4.076c1.065-1.087 2.436-1.631 4.109-1.631 1.587 0 2.894.55 3.926 1.642 1.029 1.096 1.545 2.45 1.545 4.065 0 .36-.036.744-.108 1.146h-8.154Zm-.045-2.162h5.516c-.158-.735-.486-1.281-.985-1.642a2.818 2.818 0 0 0-1.698-.541c-.749 0-1.371.191-1.859.574-.491.383-.815.919-.974 1.612v-.003ZM149.345 28.922h-3.243l-3.937-4.914v4.914h-2.788V13.784h2.788v9.1l3.721-4.774h3.329l-4.348 5.34 4.476 5.472h.002ZM156.198 17.807c1.182 0 2.159.397 2.93 1.19.771.794 1.157 1.89 1.157 3.288v6.64h-2.788v-6.293c0-.722-.195-1.274-.583-1.654-.388-.383-.907-.574-1.557-.574-.721 0-1.298.225-1.731.671-.433.447-.649 1.119-.649 2.012v5.837h-2.788v-15.14h2.788v5.535c.677-1.01 1.751-1.515 3.221-1.515v.003ZM171.335 27.57c-1.109 1.105-2.466 1.654-4.064 1.654-1.598 0-2.952-.552-4.054-1.654-1.104-1.101-1.653-2.455-1.653-4.053 0-1.598.552-2.952 1.653-4.053 1.105-1.102 2.456-1.654 4.054-1.654 1.598 0 2.955.552 4.064 1.654 1.11 1.101 1.665 2.455 1.665 4.053 0 1.598-.555 2.952-1.665 4.053Zm-6.151-1.911c.555.563 1.252.843 2.087.843.835 0 1.534-.28 2.097-.843s.844-1.276.844-2.142c0-.866-.281-1.579-.844-2.142s-1.262-.843-2.097-.843-1.532.28-2.087.843c-.554.563-.832 1.276-.832 2.142 0 .866.278 1.579.832 2.142Z"/><path fill="#D94025" d="M44.467 19.394c0-.913-.38-1.784-1.046-2.408l-6.537-6.101A3.293 3.293 0 0 0 34.64 10h-7.652a3.31 3.31 0 0 0-3.31 3.313v16.1a3.292 3.292 0 0 0 3.293 3.293H41.16a3.312 3.312 0 0 0 3.312-3.313V19.391l-.005.003Zm-4.911 7.233c0 .646-.524 1.17-1.17 1.17h-8.632c-.646 0-1.17-.524-1.17-1.17V16.081c0-.646.524-1.17 1.17-1.17h3.351c.567 0 1.11.213 1.524.599l4.214 3.929c.452.421.71 1.015.71 1.634v5.551l.003.003ZM19.888 13.304v16.95a2.455 2.455 0 1 1-4.91 0V16.094c0-.654-.53-1.184-1.185-1.184H3.455a2.455 2.455 0 1 1 0-4.911h13.132a3.302 3.302 0 0 1 3.301 3.302v.002Z"/></svg>