<svg xmlns="http://www.w3.org/2000/svg" width="20" height="21" fill="none" viewBox="0 0 20 21"><path fill="#D94025" fill-rule="evenodd" d="M7.556 4h7.164v1.674c-.346.07-.655.258-.875.534-.223.28-.345.628-.344.986v1.339c0 .056.021.11.06.15a.204.204 0 0 0 .144.061h.337v1.072c0 .078.03.152.083.207a.281.281 0 0 0 .401 0 .298.298 0 0 0 .084-.207V8.744h.787v1.071a.299.299 0 0 0 .077.218.284.284 0 0 0 .207.092.278.278 0 0 0 .206-.092.294.294 0 0 0 .078-.218V8.744h.336a.2.2 0 0 0 .145-.062.213.213 0 0 0 .06-.15V7.194c0-.36-.122-.71-.345-.987a1.493 1.493 0 0 0-.874-.533V4H20v10.742h-1.803v-.016c0-.215-.025-.426-.071-.63-.297-1.301-1.486-2.305-2.864-2.305a2.91 2.91 0 0 0-2.879 2.357 2.989 2.989 0 0 0-.056.578v.016H7.556v-.016h-.527c-.153-1.46-1.426-2.935-2.92-2.935-1.573 0-2.777 1.474-2.92 2.935H0v-3.522l2.054-1.467 1.468-3.229h4.034V4Z" clip-rule="evenodd"/><path fill="#D94025" d="M17.316 14.726c0 1.116-.88 2.055-2.054 2.055-1.115 0-2.055-.94-2.055-2.055 0-1.115.881-2.054 2.055-2.054 1.115 0 2.054.94 2.054 2.054Zm-11.153 0c0 1.116-.88 2.055-2.054 2.055-1.115 0-2.055-.94-2.055-2.055 0-1.115.881-2.054 2.055-2.054 1.115 0 2.054.94 2.054 2.054Z"/></svg>