<svg xmlns="http://www.w3.org/2000/svg" width="20" height="21" fill="none" viewBox="0 0 20 21"><path fill="#D94025" d="M17.555 3H6c-.245 0-.445.2-.445.445v13.333A2.2 2.2 0 0 1 5.1 18.11h10.678A2.225 2.225 0 0 0 18 15.89V3.445c0-.246-.2-.445-.445-.445ZM14.89 14.556H8.667a.445.445 0 0 1 0-.89h6.222a.445.445 0 0 1 0 .89h.001Zm0-2.667H8.667a.444.444 0 1 1 0-.889h6.222a.445.445 0 0 1 0 .889h.001Zm0-2.667H8.667a.444.444 0 1 1 0-.889h6.222a.445.445 0 0 1 0 .89l.001-.001Zm0-2.666H8.667a.445.445 0 1 1 0-.89h6.222a.445.445 0 0 1 0 .89h.001ZM4.222 4.778H2.444A.444.444 0 0 0 2 5.223v11.555a1.333 1.333 0 1 0 2.667 0V5.223a.444.444 0 0 0-.445-.445Z"/></svg>