<svg xmlns="http://www.w3.org/2000/svg" width="24" height="26" fill="none" viewBox="0 0 24 26"><path fill="#86F18D" d="M12.865 18.681c3.118.498 5.567-1.598 6.848-3.042 0 0 .498-.882.728-2.542.23-1.66-1.755-7.206-6.485-7.33-1.331.017-2.655.198-3.943.539l-.061.013c-.835.182-1.698.37-2.673.51a7.37 7.37 0 0 1-3.474-.378c.547 3.323 2.526 11.185 9.06 12.23Z"/><path fill="#24272C" d="M11.362 20.85a6.732 6.732 0 0 0 4.228-.727 10.525 10.525 0 0 0 2.99-2.414c.533.456 1.03.954 1.487 1.489a.713.713 0 0 0 1.004.095.756.756 0 0 0 .126-1.025c-3.185-3.584-7.468-5.95-12.142-6.705a.711.711 0 0 0-.541.123.757.757 0 0 0-.178 1.034c.11.162.278.271.467.306a20.43 20.43 0 0 1 8.637 3.756c-1.096 1.235-3.19 3.026-5.854 2.6C6 18.49 4.308 11.77 3.84 8.929a6.3 6.3 0 0 0 2.97.323c.853-.123 1.607-.288 2.336-.447a13.816 13.816 0 0 1 3.37-.46c4.045.106 5.832 3.706 6.049 6.1a.748.748 0 0 0 .264.487.713.713 0 0 0 1.006-.095.755.755 0 0 0 .173-.529c-.264-2.922-2.465-7.317-7.455-7.448-1.252.01-2.497.175-3.71.492-.704.153-1.432.312-2.23.427a4.948 4.948 0 0 1-3.007-.568.889.889 0 0 0-.957.047.924.924 0 0 0-.316.394.95.95 0 0 0-.065.507c.212 1.896 1.656 11.504 9.093 12.692Z"/></svg>