<svg xmlns="http://www.w3.org/2000/svg" width="410" height="255" fill="none" viewBox="0 0 410 255"><path fill="#24272C" d="M404.389 232.366H5v4.467h399.389v-4.467Z"/><path fill="#E3F4FF" d="M388.724 123.902h-27.483v101.525h27.483V123.902Z"/><path fill="#F2F3F7" d="M388.724 225.428h7.604V123.902h-7.604v101.526Z"/><path fill="#93FF89" d="M405 103.758h-42.024l-11.741 27.216h42.025L405 103.758Z"/><path fill="#E3F4FF" d="M396.53 106.857h-30.995l-8.659 20.073h30.995l8.659-20.073Z"/><path fill="#93FF89" d="M388.723 224.628h-34.242v7.738h34.242v-7.738Z"/><path fill="#2DF37C" d="M388.723 232.365h13.253v-7.738h-13.253v7.738Z"/><path fill="#93FF89" d="M376.063 183.127a4.071 4.071 0 1 0-7.925-1.87 4.071 4.071 0 0 0 7.925 1.87Z"/><path fill="#93FF89" d="M376.182 182.198a4.07 4.07 0 0 1-4.401 4.057v-8.114a4.07 4.07 0 0 1 4.401 4.056v.001Z"/><path fill="#2DF37C" d="M376.182 182.198a4.07 4.07 0 0 1-4.401 4.057v-8.114a4.07 4.07 0 0 1 4.401 4.056v.001Z"/><path fill="#FFCD29" d="M371.781 184.716a2.517 2.517 0 1 0 0-5.034 2.517 2.517 0 0 0 0 5.034Z"/><path fill="#FFCD29" d="M374.297 182.199a2.516 2.516 0 0 1-2.517 2.517v-5.034a2.516 2.516 0 0 1 2.517 2.517Z"/><path fill="#F2F3F7" d="m396.53 106.857-39.654 20.073h30.995l8.659-20.073Z"/><path fill="#fff" d="M372.28 161.904h-7.062v.557h7.062v-.557ZM381.884 161.904h-7.062v.557h7.062v-.557ZM378.764 142.805h-10.426v14.625h10.426v-14.625Z"/><path fill="#fff" d="M378.485 143.084v14.068h-9.869v-14.068h9.869Zm.557-.558h-10.983v15.183h10.983v-15.183Z"/><path fill="#E3F4FF" d="M377.054 145.375h-7.007v.558h7.007v-.558ZM377.054 147.969h-7.007v.558h7.007v-.558ZM373.55 150.562h-3.503v.558h3.503v-.558Z"/><path fill="#2DF37C" d="M339.078 221.74c-3.369 0-6.108-.754-8.351-2.294-2.212-1.519-3.875-3.767-5.085-6.873-2.2-5.646-2.57-13.357-2.961-21.521-.476-9.933-.969-20.204-4.657-28.43-2.844-6.342-7.071-10.192-12.565-11.445-7.626-1.739-16.475 1.8-22.556 5.075-6.66 3.588-11.546 7.655-11.595 7.696a.799.799 0 0 1-1.12-.095.784.784 0 0 1 .095-1.113c.049-.042 5.039-4.197 11.834-7.862 4.006-2.159 7.854-3.734 11.436-4.679 4.529-1.194 8.653-1.384 12.258-.562 6.01 1.369 10.608 5.522 13.666 12.343 3.809 8.496 4.309 18.918 4.793 28.997.385 8.032.749 15.619 2.855 21.027 2.266 5.816 6.351 8.402 12.856 8.138 9.425-.382 10.98-9.132 12.626-18.394.943-5.304 1.918-10.788 4.484-14.709 2.966-4.533 7.648-6.33 14.314-5.493.436.054.744.45.69.883a.796.796 0 0 1-.889.685c-13.373-1.68-15.149 8.321-17.031 18.909-.828 4.654-1.683 9.467-3.619 13.115-2.247 4.234-5.685 6.387-10.51 6.583-.329.013-.652.02-.968.02v-.001Z"/><path fill="#24272C" d="M331.661 210.461c0-11.996-8.418-21.719-18.813-21.719h10.869c10.395 0 18.814 9.723 18.814 21.719s-8.419 21.719-18.814 21.719h-10.869c10.414 0 18.813-9.723 18.813-21.719Z"/><path fill="#BCBDBE" d="M313.282 188.743c-10.612 0-19.229 9.723-19.229 21.718 0 11.996 8.597 21.719 19.229 21.719 10.612 0 19.229-9.723 19.229-21.719 0-11.995-8.597-21.718-19.229-21.718Z"/><path fill="#24272C" d="M312.867 188.743c-10.395 0-18.813 9.723-18.813 21.718 0 11.996 8.418 21.719 18.813 21.719s18.814-9.723 18.814-21.719c-.02-11.995-8.419-21.718-18.814-21.718Z"/><path fill="#24272C" d="M235.834 198.031h83.121v18.063h-83.121v-18.063Z"/><path fill="#24272C" d="M271.96 213.961a9.407 9.407 0 1 1 18.31-4.324 9.407 9.407 0 0 1-18.31 4.324ZM160.974 210.461c0-11.996-8.418-21.719-18.813-21.719h10.869c10.395 0 18.814 9.723 18.814 21.719s-8.419 21.719-18.814 21.719h-10.869c10.415 0 18.813-9.723 18.813-21.719Z"/><path fill="#BCBDBE" d="M142.595 188.743c-10.612 0-19.229 9.723-19.229 21.718 0 11.996 8.597 21.719 19.229 21.719 10.612 0 19.229-9.723 19.229-21.719 0-11.995-8.597-21.718-19.229-21.718Z"/><path fill="#24272C" d="M142.18 188.743c-10.395 0-18.813 9.723-18.813 21.718 0 11.996 8.418 21.719 18.813 21.719s18.814-9.723 18.814-21.719c-.02-11.995-8.419-21.718-18.814-21.718Z"/><path fill="#24272C" d="M65.147 198.031h83.121v18.063h-83.12v-18.063Z"/><path fill="#24272C" d="M101.141 213.256a9.407 9.407 0 1 1 18.571-3.014c.833 5.128-2.65 9.96-7.778 10.792-5.129.833-9.96-2.65-10.793-7.778Z"/><path fill="#24272C" fill-opacity=".7" d="M342.669 212.772H43.467a4.984 4.984 0 0 1-4.98-4.98v-8.715c0-15.276 12.372-27.647 27.648-27.647h282.107v35.769a5.566 5.566 0 0 1-5.573 5.573Z"/><path fill="#24272C" d="M86.748 210.46c0-11.995-8.419-21.718-18.814-21.718h10.87c10.394 0 18.813 9.723 18.813 21.718 0 11.996-8.419 21.719-18.814 21.719H67.934c10.415 0 18.814-9.723 18.814-21.719Z"/><path fill="#BCBDBE" d="M68.37 188.742c-10.613 0-19.23 9.723-19.23 21.719s8.597 21.719 19.23 21.719c10.631 0 19.228-9.723 19.228-21.719s-8.597-21.719-19.229-21.719Z"/><path fill="#24272C" d="M67.954 188.742c-10.395 0-18.813 9.723-18.813 21.719s8.418 21.719 18.813 21.719 18.814-9.723 18.814-21.719c-.02-11.996-8.419-21.719-18.814-21.719Z"/><path fill="#24272C" d="M67.954 194.315c-7.727 0-13.992 7.233-13.992 16.146s6.265 16.146 13.992 16.146c7.727 0 13.992-7.233 13.992-16.146s-6.265-16.146-13.992-16.146Z"/><path fill="#24272C" d="M67.954 196.667c-6.6 0-11.956 6.186-11.956 13.794 0 7.628 5.355 13.794 11.956 13.794 6.6 0 11.956-6.185 11.956-13.794-.02-7.628-5.355-13.794-11.956-13.794Z"/><path fill="#E3F4FF" d="M67.954 195.066c7.371 0 13.34 6.897 13.34 15.415 0 8.517-5.969 15.414-13.34 15.414-7.371 0-13.34-6.897-13.34-15.414 0-8.518 5.969-15.415 13.34-15.415Zm-2.055 16.956-9.684 3.004a14.751 14.751 0 0 0 2.648 5.138l7.036-8.142Zm-7.194-11.027c-1.146 1.482-2.035 3.26-2.569 5.197l9.644 2.984-7.075-8.181Zm6.541-4.467 2.57 11.107 2.588-11.186c-.79-.178-1.62-.276-2.45-.276-.929 0-1.838.138-2.708.355Zm11.957 23.419c1.146-1.483 2.035-3.261 2.569-5.198l-9.625-2.984 7.056 8.182Zm2.47-14.012a14.75 14.75 0 0 0-2.648-5.138l-7.036 8.142 9.684-3.004Zm-9.032 18.478-2.569-11.106-2.588 11.185c.79.178 1.62.277 2.45.277.949 0 1.838-.139 2.707-.356Z"/><path fill="#fff" d="M67.935 195.066c7.371 0 13.34 6.897 13.34 15.395s-5.969 15.395-13.34 15.395c-7.372 0-13.34-6.897-13.34-15.395.02-8.498 5.988-15.395 13.34-15.395Zm0 29.722c6.838 0 12.39-6.403 12.39-14.327 0-7.905-5.552-14.308-12.39-14.308-6.838 0-12.391 6.403-12.391 14.308s5.553 14.327 12.39 14.327Z"/><path fill="#BCBDBE" d="M69.693 205.759c-2.253 0-4.07 2.114-4.07 4.703 0 2.609 1.817 8.893 4.07 8.893s4.071-6.284 4.071-8.893c0-2.608-1.818-4.703-4.07-4.703Z"/><path fill="#24272C" d="M69.693 205.759c-2.253 0-4.07 2.114-4.07 4.703 0 2.609 1.817 4.704 4.07 4.704s4.071-2.115 4.071-4.704c0-2.608-1.818-4.703-4.07-4.703Z"/><path fill="#fff" d="M67.954 205.759c-2.252 0-4.07 2.114-4.07 4.703 0 2.609 1.817 4.704 4.07 4.704s4.071-2.115 4.071-4.704c0-2.608-1.818-4.703-4.07-4.703Z"/><path fill="#24272C" d="M257.434 210.46c0-11.995-8.418-21.718-18.813-21.718h10.869c10.395 0 18.814 9.723 18.814 21.718 0 11.996-8.419 21.719-18.814 21.719h-10.869c10.414 0 18.813-9.723 18.813-21.719Z"/><path fill="#BCBDBE" d="M239.056 188.742c-10.612 0-19.229 9.723-19.229 21.719s8.597 21.719 19.229 21.719c10.612 0 19.229-9.723 19.229-21.719s-8.597-21.719-19.229-21.719Z"/><path fill="#24272C" d="M238.64 188.742c-10.395 0-18.814 9.723-18.814 21.719s8.419 21.719 18.814 21.719 18.814-9.723 18.814-21.719c-.02-11.996-8.419-21.719-18.814-21.719Z"/><path fill="#24272C" d="M238.641 194.315c-7.727 0-13.992 7.233-13.992 16.146s6.265 16.146 13.992 16.146c7.727 0 13.991-7.233 13.991-16.146s-6.264-16.146-13.991-16.146Z"/><path fill="#24272C" d="M238.641 196.667c-6.601 0-11.956 6.186-11.956 13.794 0 7.628 5.355 13.794 11.956 13.794 6.601 0 11.956-6.185 11.956-13.794 0-7.628-5.355-13.794-11.956-13.794Z"/><path fill="#E3F4FF" d="M238.64 195.066c7.372 0 13.34 6.897 13.34 15.415 0 8.517-5.968 15.414-13.34 15.414-7.371 0-13.339-6.897-13.339-15.414 0-8.518 5.968-15.415 13.339-15.415Zm-2.055 16.956-9.683 3.004a14.744 14.744 0 0 0 2.648 5.138l7.035-8.142Zm-7.193-11.027c-1.146 1.482-2.036 3.26-2.569 5.197l9.644 2.984-7.075-8.181Zm6.541-4.467 2.569 11.107 2.589-11.186a11.222 11.222 0 0 0-2.451-.276c-.928 0-1.837.138-2.707.355Zm11.956 23.419c1.146-1.483 2.036-3.261 2.569-5.198l-9.624-2.984 7.055 8.182Zm2.47-14.012a14.744 14.744 0 0 0-2.648-5.138l-7.035 8.142 9.683-3.004Zm-9.031 18.478-2.569-11.106-2.589 11.185c.791.178 1.621.277 2.451.277.948 0 1.838-.139 2.707-.356Z"/><path fill="#fff" d="M238.621 195.066c7.371 0 13.339 6.897 13.339 15.395s-5.968 15.395-13.339 15.395-13.34-6.897-13.34-15.395c.02-8.498 5.988-15.395 13.34-15.395Zm0 29.722c6.838 0 12.391-6.403 12.391-14.327 0-7.905-5.553-14.308-12.391-14.308s-12.391 6.403-12.391 14.308 5.553 14.327 12.391 14.327Z"/><path fill="#BCBDBE" d="M240.38 205.759c-2.253 0-4.071 2.114-4.071 4.703 0 2.609 1.818 8.893 4.071 8.893 2.253 0 4.071-6.284 4.071-8.893 0-2.608-1.818-4.703-4.071-4.703Z"/><path fill="#24272C" d="M240.38 205.759c-2.253 0-4.071 2.114-4.071 4.703 0 2.609 1.818 4.704 4.071 4.704 2.253 0 4.071-2.115 4.071-4.704 0-2.608-1.818-4.703-4.071-4.703Z"/><path fill="#fff" d="M238.639 205.759c-2.253 0-4.071 2.114-4.071 4.703 0 2.609 1.818 4.704 4.071 4.704 2.253 0 4.071-2.115 4.071-4.704 0-2.608-1.818-4.703-4.071-4.703Z"/><path fill="#2DF37C" d="M154.295 125.107c10.197-2.688 88.653-3.182 97.171.079.059.02.099.02.158.04 2.865.849 8.379 13.813 9.565 31.066 0 0 .731 5.019.909 6.442v.02c1.482 11.502-9.209 16.699-22.885 16.699-13.675 0-24.782 13.122-24.782 29.288h-69.049c0-16.185-2.135-80.729 8.913-83.634Z"/><path fill="#2DF37C" d="M175.757 156.292h14.703v52.449h-14.703v-52.449Z"/><path fill="#2DF37C" d="M377.629 156.292c.039.177.079.355.118.553.02.079.04.178.06.277.019.118.059.256.079.395.019.138.059.257.079.395.019.099.039.217.059.336.039.178.059.356.099.553 0 .06.019.119.019.158.178 1.068.376 2.332.554 3.775v.02c1.482 11.501 2.589 32.904-4.723 36.026-12.787 5.475-15.889 6.957-23.616 9.961h-86.302c0-16.186-11.087-29.288-24.762-29.288-13.676 0-24.782 13.122-24.782 29.288h-30.316l-1.561-10.712v-41.737h194.995Z"/><path fill="#93FF89" d="M293.777 156.292c1.423 5.671 5.553 38.536-3.656 42.488-12.786 5.475-15.889 6.957-23.616 9.961h-2.45c0-16.186-11.087-29.288-24.763-29.288-13.675 0-24.782 13.122-24.782 29.288h-33.457l-1.561-10.712v-35.275l.79-6.462h113.495Z"/><path fill="#24272C" fill-opacity=".7" d="M270.735 208.741c7.727-3.004 10.829-4.486 23.616-9.96 1.897-.811 3.221-2.866 4.13-5.633h76.816c-.909 2.767-2.233 4.822-4.13 5.633a5938.184 5938.184 0 0 0-28.517 12.331 7.945 7.945 0 0 1-3.162.653H269.49v-3.024h1.245Z"/><path fill="#93FF89" d="M36.808 182.022c.138-.514.296-1.008.455-1.502 2.252-6.937 5.71-11.937 8.774-14.17 1.383-1.008 4.802-2.035 9.308-3.043 12.747-2.846 34.17-5.455 42.944-6.482 24.268-21.047 39.01-28.3 44.465-29.624 19.604-4.763 32.864-3.241 35.097-2.51 2.273.732-.553 33.359-.553 38.043v35.275l1.522 10.712H94.198c0-16.186-11.087-29.288-24.782-29.288-13.676 0-24.762 13.122-24.762 29.288h-7.787c-2.193-3.874-2.747-17.332-.059-26.699Z"/><path fill="#fff" d="M240.182 173.444c-7.174 0-13.893.948-19.763 2.628h39.525c-5.87-1.68-12.589-2.628-19.762-2.628Z" opacity=".4"/><path fill="#2DF37C" d="M218.187 185.261a37.369 37.369 0 0 0-3.123 5h-35.572v-5h38.695ZM262.177 185.261a37.47 37.47 0 0 1 3.123 5h21.244a6.083 6.083 0 0 0 5.731-4.012l.356-.988h-30.454Z"/><path fill="#CCE2F5" d="M188.8 152.537h63.101c2.313 0 3.716-2.134 2.886-4.387l-5.534-14.941c-.612-1.64-2.213-2.786-3.893-2.786h-56.263c-1.68 0-2.965 1.166-3.103 2.786l-1.284 14.941c-.238 2.253 1.778 4.387 4.09 4.387Z"/><path fill="#E3F4FF" d="M242.79 141.667c-.612-1.64-2.213-2.786-3.893-2.786H185.48l.494-5.652c.138-1.64 1.423-2.787 3.102-2.787h56.264c1.679 0 3.3 1.166 3.893 2.787l5.533 14.94c.83 2.253-.573 4.387-2.885 4.387h-5.059l-4.032-10.889Z"/><path fill="#24272C" d="M188.839 153.031h63.101c1.245 0 2.332-.554 2.984-1.522.672-.988.791-2.273.317-3.498l-5.534-14.94c-.691-1.858-2.49-3.142-4.387-3.142h-56.263c-1.897 0-3.399 1.344-3.557 3.201l-1.285 14.94c-.099 1.206.356 2.451 1.245 3.419a4.527 4.527 0 0 0 3.379 1.542Zm56.54-22.114c1.443 0 2.866 1.027 3.399 2.431l5.534 14.94c.356.929.257 1.897-.237 2.628-.475.712-1.285 1.127-2.214 1.127H188.76c-.968 0-1.917-.435-2.628-1.206-.692-.751-1.047-1.699-.968-2.608l1.284-14.941c.119-1.403 1.206-2.371 2.648-2.371h56.283ZM341.068 162.634c0 1.423-1.66 2.589-3.695 2.589-2.036 0-3.696-1.166-3.696-2.589s1.66-1.463 3.696-1.463c2.035 0 3.695.02 3.695 1.463Z"/><path fill="#24272C" d="M340.1 164.076h-6.383a1.46 1.46 0 0 1-1.463-1.463c0-.81.653-1.462 1.463-1.462h6.383c.81 0 1.462.652 1.462 1.462-.019.811-.671 1.463-1.462 1.463Z"/><path fill="#fff" d="M341.009 164.076h-6.383c-.81 0-1.462-.652-1.462-1.463 0-.81.652-1.462 1.462-1.462h6.383c.81 0 1.463.652 1.463 1.462a1.46 1.46 0 0 1-1.463 1.463Z"/><path fill="#24272C" d="m299.528 156.132.296 1.621a88.98 88.98 0 0 1 .553 3.794c.514 3.992 2.016 17.529.257 27.094h72.686c1.779-9.426.277-22.983-.237-26.975a89.62 89.62 0 0 0-.553-3.755l-.356-1.779h1.008l.316 1.621a90.61 90.61 0 0 1 .553 3.794c.514 4.071 2.075 18.083.139 27.687a.49.49 0 0 1-.494.395h-73.694c-.158 0-.297-.059-.376-.177a.45.45 0 0 1-.098-.415c1.897-9.447.355-23.32-.159-27.371a86.424 86.424 0 0 0-.553-3.755l-.336-1.779h1.048Z"/><path fill="#FFA236" d="M294.389 166.253h3.182c.711 0 1.304.534 1.383 1.245.395 4.249.652 9.13.534 13.774-.02.751-.633 1.324-1.384 1.324h-3.103c.238-5.474-.098-11.422-.612-16.343Z"/><path fill="#24272C" d="M295.002 182.852h3.103c.889 0 1.6-.691 1.62-1.581.138-5.177-.217-10.375-.533-13.813a1.615 1.615 0 0 0-1.621-1.463h-3.182a.254.254 0 0 0-.178.079c-.039.059-.079.119-.059.198.415 4.13.87 10.316.593 16.323 0 .06.02.139.059.178.06.06.119.079.198.079Zm2.569-16.363c.593 0 1.067.435 1.127 1.028.316 3.419.671 8.596.533 13.754a1.145 1.145 0 0 1-1.126 1.087h-2.846c.237-5.81-.178-11.778-.593-15.849h2.905v-.02Z"/><path fill="#D60027" d="M296.859 172.397h.039a1.44 1.44 0 0 1 1.423 1.325c.139 1.679.218 3.517.218 5.296 0 .79-.633 1.442-1.423 1.442-.415 0-.751-.355-.751-.79.059-2.174-.06-4.447-.237-6.443a.732.732 0 0 1 .731-.83Z"/><path fill="#fff" d="M297.097 167.121h.039c.632 0 1.146.474 1.206 1.107.118 1.403.197 2.944.177 4.427 0 .671-.533 1.205-1.205 1.205a.64.64 0 0 1-.632-.652c.039-1.818-.06-3.715-.198-5.395a.613.613 0 0 1 .613-.692Z" opacity=".5"/><path fill="#D60027" d="m291.366 168.622-2.154 10.632c-.355 1.719.969 3.34 2.728 3.34h3.912c.238-5.474-.098-11.423-.592-16.364h-.989c-1.403.02-2.628 1.008-2.905 2.392Z"/><path fill="#fff" d="m292.137 168.444-.929 4.545c-.158.731.415 1.423 1.166 1.423.949 0 1.719-.751 1.719-1.7a47.66 47.66 0 0 0-.257-4.881.452.452 0 0 0-.454-.415c-.593.02-1.127.435-1.245 1.028Z" opacity=".5"/><path fill="#24272C" d="M295.853 182.851h-3.913a3.104 3.104 0 0 1-2.352-1.107 3.064 3.064 0 0 1-.632-2.53l2.154-10.632a3.215 3.215 0 0 1 3.142-2.569h.988c.138 0 .257.119.257.257a.262.262 0 0 1-.257.257h-.988a2.728 2.728 0 0 0-2.668 2.174l-2.154 10.632a2.543 2.543 0 0 0 .514 2.115 2.513 2.513 0 0 0 1.956.928h3.913c.138 0 .257.119.257.257.039.099-.079.218-.217.218Z"/><path fill="#FFA236" d="M376.917 166.251h2.213c.494 4.921.85 10.869.593 16.363h-2.292a1.208 1.208 0 0 1-1.206-1.245c.139-4.644-.118-9.525-.513-13.794-.04-.711.494-1.324 1.205-1.324Z"/><path fill="#24272C" d="M377.451 182.851h2.292a.262.262 0 0 0 .257-.257.261.261 0 0 0-.257-.256h-2.292a.884.884 0 0 1-.672-.297.988.988 0 0 1-.277-.692c.138-5.177-.198-10.375-.514-13.833a.968.968 0 0 1 .237-.731.957.957 0 0 1 .712-.317h2.213a.26.26 0 0 0 .257-.256.26.26 0 0 0-.257-.257h-2.213c-.415 0-.791.177-1.067.474a1.437 1.437 0 0 0-.376 1.107c.316 3.438.672 8.616.514 13.774-.02.395.138.771.415 1.067.257.316.632.474 1.028.474Z"/><path fill="#D60027" d="M377.312 172.396h.039c.732 0 1.364.573 1.423 1.324.139 1.679.218 3.517.218 5.296 0 .79-.633 1.443-1.423 1.443-.415 0-.751-.356-.751-.791.059-2.174-.059-4.446-.237-6.442a.742.742 0 0 1 .731-.83Z"/><path fill="#fff" d="M377.569 167.12h.04c.632 0 1.146.474 1.205 1.106a46.08 46.08 0 0 1 .178 4.427c0 .672-.534 1.206-1.205 1.206a.642.642 0 0 1-.633-.653c.04-1.818-.059-3.715-.197-5.395-.06-.375.237-.691.612-.691Z" opacity=".5"/><path fill="#fff" d="M49.555 176.074h39.979c-5.929-1.68-12.747-2.628-19.98-2.628-7.233 0-14.07.948-20 2.628Z" opacity=".4"/><path fill="#2DF37C" d="M91.53 185.263h85.808v5H94.653a33.737 33.737 0 0 0-3.123-5Z"/><path fill="#CCE2F5" d="M144.552 132.656c-4.348.949-14.94 6.64-33.181 22.905-.81.731-1.324 1.759-1.383 2.826-.079 1.186.83 2.134 2.016 2.114 7.154-.178 30.928-.83 52.409-1.739.929-14.189 1.225-24.209 1.324-28.319-8.399.395-16.383 1.186-21.185 2.213Z"/><path fill="#E3F4FF" d="M151.488 141.391c3.38-.731 8.38-1.344 13.972-1.779.178-4.17.257-7.292.297-9.189-8.419.395-16.403 1.205-21.205 2.233-4.348.949-14.94 6.64-33.181 22.904-.81.732-1.324 1.759-1.383 2.827a1.955 1.955 0 0 0 2.015 2.114c2.234-.059 6.087-.158 11.008-.296 15.375-13.142 24.505-17.964 28.477-18.814Z"/><path fill="#BCBDBE" d="M159.73 168.84c-2.041 0-3.695-1.159-3.695-2.589s1.654-2.589 3.695-2.589 3.696 1.159 3.696 2.589-1.655 2.589-3.696 2.589Z"/><path fill="#BCBDBE" d="M157.003 167.714h6.383c.81 0 1.462-.652 1.462-1.463 0-.81-.652-1.462-1.462-1.462h-6.383c-.811 0-1.463.652-1.463 1.462 0 .811.672 1.463 1.463 1.463Z"/><path fill="#fff" d="M156.093 167.714h6.383c.81 0 1.462-.652 1.462-1.463 0-.81-.652-1.462-1.462-1.462h-6.383a1.46 1.46 0 0 0-1.463 1.462 1.46 1.46 0 0 0 1.463 1.463Z"/><path fill="#24272C" d="M166.607 206.331v.494h-60.512v-48.952c0-1.205.494-2.351 1.383-3.162 22.035-20.434 31.837-23.754 34.327-24.287 5.791-1.245 17.707-2.174 27.845-2.53v.435c.119 2.45-.612 34.307-3.043 78.002Zm-60.018 0h59.504c2.411-43.221 3.202-74.86 3.044-77.903-9.98.375-21.699 1.284-27.253 2.47-2.45.533-12.134 3.834-34.09 24.169a3.845 3.845 0 0 0-1.225 2.806l.02 48.458Z"/><path fill="#fff" d="M166.251 130.403c-.099 4.625-.415 14.466-1.324 28.34-.02.257-.237.494-.494.494-21.6.909-45.592 1.561-52.43 1.739h-.079a2.415 2.415 0 0 1-1.758-.731 2.462 2.462 0 0 1-.672-1.858 4.726 4.726 0 0 1 1.561-3.182c21.719-19.367 31.066-22.529 33.418-23.023 4.644-1.008 12.391-1.818 21.284-2.253.138 0 .257.04.356.139.098.079.138.197.138.335Zm-.988.534c-8.636.435-16.126 1.225-20.632 2.194-1.64.355-6.818 2.055-17.569 10.098-3.478 2.589-5.671 6.581-5.928 10.79l-.356 5.732c10.593-.297 27.489-.831 43.2-1.483.85-13.142 1.166-22.568 1.285-27.331Z" opacity=".4"/><path fill="#24272C" d="M36.769 187.912h-1.186c.296-2.055.692-4.051 1.225-5.889 1.304-4.506 3.123-8.281 5.06-11.127h.533a4.057 4.057 0 0 1 4.051 4.052v3.28a9.674 9.674 0 0 1-9.683 9.684Z"/><path fill="#E3F4FF" d="M36.69 182.517c.039-.159.079-.336.118-.494 1.067-3.696 2.47-6.878 4.012-9.486h2.925c.79 0 1.482.533 1.719 1.284.099.356.158.731.158 1.127v3.28a9.549 9.549 0 0 1-.573 3.281 1.535 1.535 0 0 1-1.443 1.008H36.69Z"/><path fill="#FFA236" d="M37.105 181.034c.671-2.134 1.442-4.091 2.292-5.83a5.251 5.251 0 0 1 2.786-.79h3.4c.02.177.04.355.04.533v3.281a9.551 9.551 0 0 1-.475 2.925h-7.51a.974.974 0 0 1-.533-.119Z"/><path fill="#fff" d="m102.439 175.244 12.529-10.256a3.584 3.584 0 0 0 1.324-2.767v-6.7c0-1.976-1.601-2.272-3.597-.652l-10.256 8.399c-.988.811-1.779 2.253-1.779 3.222v8.438c0 .968.791 1.127 1.779.316Z" opacity=".4"/><path fill="#24272C" d="M111.193 159.811h6.225c.791 0 1.423-.632 1.423-1.423 0-.79-.632-1.423-1.423-1.423h-6.225c-.79 0-1.423.633-1.423 1.423 0 .791.633 1.423 1.423 1.423Z"/><path fill="#24272C" d="M111.845 159.811h6.225c.791 0 1.423-.632 1.423-1.423 0-.79-.632-1.423-1.423-1.423h-6.225c-.79 0-1.423.633-1.423 1.423-.019.791.633 1.423 1.423 1.423Z"/><path fill="#E3F4FF" d="M112.202 156.965h5.849c.791 0 1.423.633 1.423 1.423h-5.849a1.43 1.43 0 0 1-1.423-1.423Z"/><path fill="#24272C" d="M102.439 159.81h12.213c.909 0 1.64-.731 1.64-1.64v-6.759a3.598 3.598 0 0 0-3.597-3.597h-10.256c-.988 0-1.779.791-1.779 1.779v8.439c0 .988.791 1.778 1.779 1.778Z"/><path fill="#A6A7A9" d="M104.553 159.81h10.356c.77 0 1.383-.632 1.383-1.383v-7.016a3.598 3.598 0 0 0-3.597-3.597h-8.142c-.988 0-1.778.791-1.778 1.779v8.439c0 .988.79 1.778 1.778 1.778Z"/><path fill="#24272C" d="M104.711 159.019h9.446c.929 0 1.68-.751 1.68-1.68v-5.454a3.23 3.23 0 0 0-3.241-3.241h-7.885c-.89 0-1.601.711-1.601 1.601v7.174c.02.889.731 1.6 1.601 1.6Z"/><path fill="#24272C" d="M104.652 159.02h9.15a1.7 1.7 0 0 0 1.699-1.699v-4.981a3.095 3.095 0 0 0-3.102-3.102h-7.747c-.85 0-1.541.691-1.541 1.541v6.719c.019.85.691 1.522 1.541 1.522Z"/><path fill="#fff" d="M104.652 149.238h7.747a3.095 3.095 0 0 1 3.102 3.102v3.518c-3.814-2.134-8.063-3.004-12.39-3.32v-1.778a1.551 1.551 0 0 1 1.541-1.522Z" opacity=".1"/><path fill="#93FF89" d="M59.638 90.836 44.544 71.09s7.59 1.47 12.518 6.317c5.077 4.995 4.986 10.982 2.576 13.429Z"/><path fill="#2DF37C" d="M59.638 90.836c-.16.162-.33.308-.51.439-2.888 2.087-9.705.21-12.52-6.317-2.747-6.37-2.063-13.868-2.063-13.868l15.094 19.746h-.001Z"/><path fill="#2DF37C" d="M58.742 93.185c.072.589.02 1.15-.157 1.65-.943 2.658-6.23 4.502-11 1.516C42.93 93.437 40 88.244 40 88.244l18.742 4.941Z"/><path fill="#93FF89" d="M58.742 93.185 40 88.244s5.608-2.458 10.999-1.517c4.813.84 7.433 3.91 7.743 6.457v.001Z"/><path fill="#2DF37C" d="M88.263 93.148c.087.729.313 1.388.673 1.936 1.913 2.917 8.809 3.581 13.665-1.408 4.739-4.87 6.735-11.972 6.735-11.972L88.263 93.148Z"/><path fill="#93FF89" d="m88.263 93.147 21.073-11.443s-7.461-1.306-13.664 1.408c-5.537 2.422-7.785 6.883-7.41 10.034v.001Z"/><path fill="#fff" d="M91.266 34.683H57.374v62.203h33.892V34.683Z"/><path fill="#E3F4FF" d="M90.481 35.468V96.1H58.16V35.468H90.48Zm1.57-1.57H56.59v63.773h35.46V33.898Z"/><path fill="#E3F4FF" d="M82.461 30H66.18v5.468H82.46V30Z"/><path fill="#2DF37C" d="M87.2 84.436H61.44v8.384H87.2v-8.383ZM87.2 72.772H61.44v8.384H87.2v-8.384ZM80.056 51.79h-2.9l2.13-5.79h-6.94l-2.99 8.11h2.09l-3.63 9.84 12.24-12.16Z"/><path fill="url(#paint0_linear_7525_3045)" d="M377 44.77c-4.46-2.43-6.49-.41-8.11-2.43-1.62-2.03 4.46-7.3-7.7-12.57 0 0-.81-11.35-17.43-11.76-16.62-.41-12.16 11.35-16.62 14.19-4.46 2.84-5.68-1.62-10.14 1.22-4.46 2.84-2.43 8.51-6.08 9.32-3.65.81-8.51-3.65-12.97-.81-4.46 2.84-4.46 5.27-6.49 5.27-2.03 0-6.08-1.62-8.51 0-2.43 1.62-5.27 3.65-5.27 3.65h102.57s1.22-3.65-3.24-6.08H377Z" opacity=".5"/><path fill="url(#paint1_linear_7525_3045)" d="M259.569 96.36c-2.64-1.44-3.84-.24-4.81-1.44-.96-1.2 2.64-4.33-4.57-7.45 0 0-.48-6.73-10.33-6.97-9.85-.24-7.21 6.73-9.85 8.41-2.64 1.68-3.36-.96-6.01.72-2.64 1.68-1.44 5.05-3.6 5.53-2.16.48-5.05-2.16-7.69-.48-2.64 1.68-2.64 3.12-3.84 3.12-1.2 0-3.6-.96-5.05 0-1.44.96-3.12 2.16-3.12 2.16h60.79s.72-2.16-1.92-3.6Z" opacity=".5"/><defs><linearGradient id="paint0_linear_7525_3045" x1="277.68" x2="374.497" y1="25.699" y2="57.482" gradientUnits="userSpaceOnUse"><stop stop-color="#FCEEEA"/><stop offset="1" stop-color="#E5F0FA"/></linearGradient><linearGradient id="paint1_linear_7525_3045" x1="200.699" x2="258.078" y1="85.056" y2="103.895" gradientUnits="userSpaceOnUse"><stop stop-color="#FCEEEA"/><stop offset="1" stop-color="#E5F0FA"/></linearGradient></defs></svg>