<svg xmlns="http://www.w3.org/2000/svg" width="15" height="15" version="1.1" viewBox="0 0 15 15"><g id="Page-1" fill="none" fill-rule="evenodd" stroke="none" stroke-width="1"><g id="Expo-homepage" fill="#F75D34" transform="translate(-1361 -34)"><g id="Group-18"><g id="Group-7" transform="translate(1132 8)"><path id="Shape" d="m239.678 30.968-.251.25a5.9 5.9 0 0 1 1.43 3.854 5.928 5.928 0 1 1-5.929-5.928c1.473 0 2.817.54 3.854 1.428l.251-.25V29.6l3.607-3.6 1.36 1.36-3.598 3.608h-.724ZM235 31a4 4 0 1 0 0 8 4 4 0 0 0 0-8Z" transform="matrix(1 0 0 -1 0 67)"/></g></g></g></g></svg>