<svg xmlns="http://www.w3.org/2000/svg" xmlns:xlink="http://www.w3.org/1999/xlink" id="Layer_1" data-name="Layer 1" viewBox="0 0 60 24.7"><defs><linearGradient id="linear-gradient" x1="251.96" x2="240.96" y1="-456.1" y2="-445.1" gradientTransform="matrix(1 0 0 -1 -209.86 -423.54)" gradientUnits="userSpaceOnUse"><stop offset="0" stop-color="#e74925"/><stop offset=".36" stop-color="#ed441c"/><stop offset=".95" stop-color="#fe3502"/><stop offset="1" stop-color="#ff3400"/></linearGradient><linearGradient xlink:href="#linear-gradient" id="linear-gradient-2" x1="271.6" x2="253.71" y1="-451.44" y2="-433.55"/><linearGradient xlink:href="#linear-gradient" id="linear-gradient-3" x1="250.19" x2="245.67" y1="-440.07" y2="-435.56"/><linearGradient id="linear-gradient-4" x1="205.14" x2="252.03" y1="-431.21" y2="-433.17" gradientTransform="matrix(1 0 0 -1 -209.86 -423.54)" gradientUnits="userSpaceOnUse"><stop offset="0" stop-color="#343536"/><stop offset="1"/></linearGradient><linearGradient xlink:href="#linear-gradient-4" id="linear-gradient-5" x1="204.53" x2="251.42" y1="-445.69" y2="-447.65"/><linearGradient xlink:href="#linear-gradient-4" id="linear-gradient-6" x1="205.06" x2="251.95" y1="-433.05" y2="-435.01"/><linearGradient xlink:href="#linear-gradient-4" id="linear-gradient-7" x1="205.03" x2="251.92" y1="-433.78" y2="-435.74"/><style>.cls-1{fill:url(#linear-gradient)}.cls-2{fill:url(#linear-gradient-2)}.cls-3{fill:url(#linear-gradient-3)}.cls-4{fill:url(#linear-gradient-4)}.cls-5{fill:url(#linear-gradient-5)}.cls-6{fill:url(#linear-gradient-6)}.cls-7{fill:url(#linear-gradient-7)}</style></defs><path d="m39.93 15.23-1.39 2.41a3.52 3.52 0 0 1-3.06 1.77H29a1.8 1.8 0 0 0-1.41.68l-3.35 4.14a3 3 0 0 1-.39.41h6.59A3.14 3.14 0 0 0 33 23.31l.69-1a2.42 2.42 0 0 1 2-1h12.66l-1.61-4.08a3.16 3.16 0 0 0-2.94-2Z" class="cls-1"/><path d="m52.49 4.9-1.18-3.19A2.59 2.59 0 0 0 48.86 0L45.8 5.28A3.61 3.61 0 0 1 44 6.84a2.5 2.5 0 0 1 1.21 1.31l5.65 14.61a3 3 0 0 0 2.75 1.88H60Z" class="cls-2"/><path d="M43.28 7.09h-6.79a1.81 1.81 0 0 0-1.56.89l-2 3.49h6.28a3 3 0 0 0 2.59-1.55Z" class="cls-3"/><path d="M9.47 4.91 12.31 0H5.15a2.65 2.65 0 0 0-2.3 1.33L0 6.24h7.16a2.68 2.68 0 0 0 2.31-1.33Z" class="cls-4"/><path d="M32.81 12.33a2.45 2.45 0 0 0-.76.11 2.66 2.66 0 0 0-1.55 1.22l-2 3.52a2.69 2.69 0 0 1-2.3 1.33h-5.83a2.66 2.66 0 0 0-2.08 1l-4.18 5.19h7.4a2.62 2.62 0 0 0 .95-.18 2.68 2.68 0 0 0 1.12-.81l3.35-4.15a2.71 2.71 0 0 1 2.08-1h6.48a2.68 2.68 0 0 0 2.31-1.33l1.16-2 1.68-2.9Z" class="cls-5"/><path d="M40.05 0a2.69 2.69 0 0 0-2.31 1.34l-2 3.52a2.67 2.67 0 0 1-2.31 1.33h-5.52a2.76 2.76 0 0 0-2.38 1.37l-2.82 4.82h7.15a2.3 2.3 0 0 0 .64-.09h.11a2.68 2.68 0 0 0 1.54-1.22l2.05-3.49a2.68 2.68 0 0 1 2.3-1.32h6.18a2.76 2.76 0 0 0 2.39-1.38L47.89 0Z" class="cls-6"/><path d="m15 11.05 2-3.49a2.7 2.7 0 0 1 2.31-1.32h5.5a2.78 2.78 0 0 0 2.39-1.38L30 0h-7.15a2.68 2.68 0 0 0-2.31 1.33l-2 3.52a2.68 2.68 0 0 1-2.31 1.34h-5.51a2.76 2.76 0 0 0-2.39 1.37l-2.82 4.81h7.15A2.66 2.66 0 0 0 15 11.05Z" class="cls-7"/></svg>